<?xml version="1.0" standalone="no"?><!DOCTYPE svg PUBLIC "-//W3C//DTD SVG 1.1//EN" "http://www.w3.org/Graphics/SVG/1.1/DTD/svg11.dtd"><svg t="1585056197799" class="icon" viewBox="0 0 1024 1024" version="1.1" xmlns="http://www.w3.org/2000/svg" p-id="1306" xmlns:xlink="http://www.w3.org/1999/xlink" width="100" height="100"><defs><style type="text/css"></style></defs><path d="M952.6 435.7L527.4 113.6c-7.3-5.7-17.5-5.8-24.8-0.1L72 435.6c-8.8 6.8-10.4 19.5-3.6 28.3 4 5.1 9.9 7.8 16 7.8 4.3 0 8.7-1.4 12.3-4.2l53.8-40.2v467.8c0 11.2 9 20.2 20.2 20.2H433c11.1 0 20.2-9 20.2-20.2V673.7h121.2v221.5c0 5.3 8.4 10.5 12.2 14.3 3.8 3.8 8.9 5.9 14.3 5.9h256.4c11.1 0 20.2-9 20.2-20.2V429.5l50.2 38c8.8 6.9 21.5 5.3 28.3-3.5 6.9-8.7 5.4-21.4-3.4-28.3z m-115.5-27.8V875H614.7l0.1-221.5c0-5.3-2.1-10.5-5.9-14.3-3.8-3.8-8.9-5.9-14.3-5.9H433.1c-11.1 0-20.2 9-20.2 20.2V875h-222V400.5c0-1-0.4-1.9-0.6-2.9l324.5-242.5 323.8 245c-0.9 2.4-1.5 5-1.5 7.8z" p-id="1307"></path></svg>