<?xml version="1.0" standalone="no"?><!DOCTYPE svg PUBLIC "-//W3C//DTD SVG 1.1//EN" "http://www.w3.org/Graphics/SVG/1.1/DTD/svg11.dtd"><svg t="1584966186073" class="icon" viewBox="0 0 1024 1024" version="1.1" xmlns="http://www.w3.org/2000/svg" p-id="6807" xmlns:xlink="http://www.w3.org/1999/xlink" width="100" height="100"><defs><style type="text/css"></style></defs><path d="M509.065669 118.629841c-126.676098 0-229.770104 102.769618-229.770103 229.037417 0 93.252871 56.313563 173.46575 136.708591 209.238488-151.407362 45.205575-247.352551 184.313819-248.119007 328.572364 0 0.184195-0.083911 0.283456-0.083911 0.484024 0 0.082888 0.083911 0.184195 0.083911 0.267083 0 0.400113-0.083911 0.666172-0.083911 1.066285h0.283456c0.76748 9.032724 8.116865 16.266475 17.365506 16.266475 9.266038 0 16.715707-7.232728 17.382902-16.266475h0.283456c0-176.239933 142.042063-310.49873 318.847885-310.49873v-0.666173c120.742968-6.658653 216.954217-106.46887 216.954217-228.462318-0.082888-126.268822-103.176894-229.03844-229.852992-229.03844z m0 422.960081c-107.194394 0-194.455807-86.970794-194.455806-193.83159 0-106.851587 87.261413-193.830567 194.455806-193.830567s194.454784 86.97898 194.454784 193.830567c0 106.860796-87.260389 193.83159-194.454784 193.83159zM850.429361 885.96111c0-0.199545-0.100284-0.400113-0.100284-0.566911-0.666172-105.161085-53.264111-213.721593-142.141324-277.183974l-0.184195 0.267083c-2.866281-1.899256-6.016017-3.333932-9.749039-3.333931-9.732665 0-17.648962 7.899924-17.648962 17.59882 0 5.533017 2.683109 10.299577 6.683213 13.533224l-0.199544 0.267083C767.184425 693.739181 815.015803 781.666766 815.015803 887.378389h0.282433c0.666172 9.049097 8.116865 16.281825 17.381879 16.281825 9.249665 0 16.699334-7.232728 17.366529-16.281825h0.282433c0-0.38374-0.082888-0.666172-0.082888-1.049912 0.082888-0.183172 0.183172-0.284479 0.183172-0.367367z" p-id="6808"></path></svg>