<?xml version="1.0" standalone="no"?><!DOCTYPE svg PUBLIC "-//W3C//DTD SVG 1.1//EN" "http://www.w3.org/Graphics/SVG/1.1/DTD/svg11.dtd"><svg t="1585989645401" class="icon" viewBox="0 0 1024 1024" version="1.1" xmlns="http://www.w3.org/2000/svg" p-id="2150" xmlns:xlink="http://www.w3.org/1999/xlink" width="100" height="100"><defs><style type="text/css"></style></defs><path d="M498.279267 901.235543c-11.554302 0-21.664316-8.665726-21.664316-20.220028V324.964739c0-10.110014 7.221439-18.77574 15.887165-21.664316 8.665726-4.332863 20.220028-1.444288 25.997179 4.332863l262.860366 257.083216c7.221439 7.221439 8.665726 20.220028 0 27.441467-7.221439 7.221439-20.220028 7.221439-27.441466 0L519.943583 362.51622v519.943583c0 10.110014-10.110014 18.77574-21.664316 18.77574z" fill="#d81e06" p-id="2151"></path><path d="M225.308886 580.603667c-5.777151 0-10.110014-1.444288-14.442878-5.777151-7.221439-7.221439-7.221439-20.220028 0-27.441467l173.314528-171.870239c7.221439-7.221439 20.220028-7.221439 27.441467 0s7.221439 20.220028 0 27.441466l-173.314528 171.87024c-2.888575 4.332863-8.665726 5.777151-12.998589 5.777151z" fill="#d81e06" p-id="2152"></path><path d="M735.142454 245.528914h-476.61495c-11.554302 0-20.220028-10.110014-20.220029-21.664316s8.665726-21.664316 20.220029-21.664316h475.170662c11.554302 0 20.220028 10.110014 20.220029 21.664316s-8.665726 21.664316-18.775741 21.664316z" fill="#d81e06" p-id="2153"></path></svg>